# xmcd
#
# Track frame offsets:
#	150
#	18735
#	31370
#	42215
#	58265
#	89657
#	127720
#	165927
#	184605
#	203770
#	214300
#	241847
#	256812
#	272590
#	282677
#	298200
#
# Disc length: 4251 seconds
#
# Revision: 1
# Processed by: cddbd v1.5.1PL0 Copyright (c) Steve Scherf et al.
# Submitted via: CDex 1.50Beta5
#
DISCID=ed109910
DTITLE=さまざまなアーティスト - ベルウッド・フォーク・ヒストリー
DYEAR=1900
DGENRE=Folk
TTITLE0=あがた森魚/赤色エレジー
TTITLE1=及川恒平/面影橋から
TTITLE2=小室等/雨が空から降れば
TTITLE3=ザ・ディラン/プカプカ
TTITLE4=武蔵野タンポポ団/淋しい気持ちで
TTITLE5=三上寛/負けるときもあるだろう
TTITLE6=吉田拓郎/人間なんて
TTITLE7=遠藤賢司/カレーライス
TTITLE8=南佳孝/はばたく鳥のように
TTITLE9=高田渡/自転車にのって
TTITLE10=南正人/家へ帰ろう
TTITLE11=はっぴいえんど/12月の雨の日
TTITLE12=はっぴいえんど/風来坊
TTITLE13=大瀧詠一/恋の汽車ポッポ
TTITLE14=細野晴臣/CHOO-CHOOガタゴト
TTITLE15=はっぴいえんど/さよならアメリカさよならニッポン
EXTD=
EXTT0=
EXTT1=
EXTT2=
EXTT3=
EXTT4=
EXTT5=
EXTT6=
EXTT7=
EXTT8=
EXTT9=
EXTT10=
EXTT11=
EXTT12=
EXTT13=
EXTT14=
EXTT15=
PLAYORDER=
